<?xml version="1.0" encoding="utf-8"?>
<!-- Generator: Adobe Illustrator 27.0.1, SVG Export Plug-In . SVG Version: 6.00 Build 0)  -->
<svg version="1.1" id="Calque_1" xmlns="http://www.w3.org/2000/svg" xmlns:xlink="http://www.w3.org/1999/xlink" x="0px" y="0px"
	 viewBox="0 0 1000 1000" style="enable-background:new 0 0 1000 1000;" xml:space="preserve">
<style type="text/css">
	.st0{fill:#0F0649;}
	.st1{fill:#FFFFFF;}
	.st2{fill:#0F0649;stroke:#0F0649;stroke-width:7.8528;stroke-miterlimit:10;}
	.st3{fill:none;stroke:#0F0649;stroke-width:7.8528;stroke-miterlimit:10;}
</style>
<g>
	<circle class="st0" cx="500" cy="500" r="470.5"/>
</g>
<g>
	<path class="st1" d="M500.5,935.5c-58.9,0-116-11.5-169.7-34.3c-51.9-22-98.6-53.4-138.6-93.4s-71.5-86.7-93.4-138.6
		C76,615.5,64.5,558.4,64.5,499.5s11.5-116,34.3-169.7c22-51.9,53.4-98.6,93.4-138.6s86.7-71.5,138.6-93.4
		C384.5,75,441.6,63.5,500.5,63.5s116,11.5,169.7,34.3c51.9,22,98.6,53.4,138.6,93.4s71.5,86.7,93.4,138.6
		c22.7,53.8,34.3,110.9,34.3,169.7c0,58.9-11.5,116-34.3,169.7c-22,51.9-53.4,98.6-93.4,138.6s-86.7,71.5-138.6,93.4
		C616.5,924,559.4,935.5,500.5,935.5z"/>
	<path d="M500.5,63.9c58.8,0,115.8,11.5,169.5,34.2c51.9,21.9,98.4,53.3,138.5,93.3c40,40,71.4,86.6,93.3,138.5
		c22.7,53.7,34.2,110.7,34.2,169.5s-11.5,115.8-34.2,169.5c-21.9,51.9-53.3,98.4-93.3,138.5c-40,40-86.6,71.4-138.5,93.3
		c-53.7,22.7-110.7,34.2-169.5,34.2S384.7,923.4,331,900.7c-51.9-21.9-98.4-53.3-138.5-93.3c-40-40-71.4-86.6-93.3-138.5
		C76.5,615.2,65,558.2,65,499.4S76.4,383.7,99.2,330c21.9-51.9,53.3-98.4,93.3-138.5s86.6-71.4,138.5-93.3
		C384.7,75.4,441.7,63.9,500.5,63.9 M500.5,63C259.4,63,64,258.4,64,499.5S259.4,936,500.5,936S937,740.6,937,499.5
		S741.6,63,500.5,63L500.5,63z"/>
</g>
<g>
	<path class="st2" d="M618.5,415.3L573,395.7c-4.3-1.9-9.4-2.9-14.7-3l-69.5-1c-11.4-0.2-20.8,5.6-20.8,12.7l0.2,33.5l160.7,1v-11.3
		C628.8,422.6,624.9,418.1,618.5,415.3z"/>
	<path class="st3" d="M802.9,608.3H487.2c-10.6,0-19.2-8.4-19.2-18.7V419.3c0-10.3,8.6-18.7,19.2-18.7h138.4h177.2
		c10.6,0,19.2,8.4,19.2,18.7v170.3C822.1,599.9,813.5,608.3,802.9,608.3z"/>
	<g>
		<path class="st0" d="M194.2,559.1c-5.8-3-10.2-7.2-13.4-12.6c-3.2-5.4-4.9-11.8-5.1-19v-0.7h23.6l0.1,0.5c0.2,3,0.8,5.7,2.1,8
			c1.2,2.3,2.9,4.1,5.1,5.4c2.2,1.3,4.9,1.9,8.1,1.9c5.1,0,9-1.5,11.7-4.6c2.7-3,4-7.5,4-13.4v-79.3h24.3v79.5
			c0,12.3-3.5,21.8-10.4,28.6c-7,6.8-16.8,10.2-29.4,10.2C206.9,563.6,200,562,194.2,559.1z"/>
		<path class="st0" d="M289.8,558c-6.4-3.6-11.3-8.7-14.8-15.5s-5.3-14.8-5.3-24.1v-0.2c0-9.3,1.8-17.3,5.4-23.9
			c3.6-6.7,8.6-11.8,14.9-15.4c6.4-3.6,13.9-5.4,22.5-5.4s16.2,1.8,22.6,5.4s11.4,8.7,14.9,15.4c3.5,6.7,5.3,14.7,5.3,24.1v0.2
			c0,9.4-1.8,17.4-5.3,24.2c-3.5,6.7-8.5,11.8-14.8,15.4c-6.4,3.6-13.9,5.4-22.7,5.4C303.8,563.3,296.2,561.5,289.8,558z
			 M322.5,541.7c2.8-2.1,4.9-5.1,6.5-9c1.5-4,2.3-8.8,2.3-14.4v-0.2c0-5.5-0.8-10.3-2.3-14.2c-1.6-4-3.7-7-6.5-9
			c-2.8-2.1-6.1-3.1-9.9-3.1s-7,1-9.9,3.2c-2.8,2.1-5,5.1-6.5,9c-1.6,3.9-2.3,8.6-2.3,14.2v0.2c0,5.6,0.8,10.4,2.3,14.4s3.7,7,6.5,9
			c2.9,2.1,6.2,3.1,10.1,3.1C316.4,544.9,319.7,543.8,322.5,541.7z"/>
		<path class="st0" d="M402.3,558.9c-4.6-2.9-8-7-10.4-12.1h-0.5v14.7h-23.5V445.3h23.5v44.8h0.5c2.4-5.2,5.9-9.3,10.5-12.3
			s10-4.5,16.1-4.5c7.2,0,13.5,1.8,18.7,5.4c5.3,3.6,9.3,8.7,12.1,15.4c2.9,6.7,4.3,14.7,4.3,24.1v0.1c0,9.3-1.4,17.4-4.3,24.1
			c-2.9,6.7-6.9,11.9-12.1,15.5c-5.3,3.6-11.5,5.4-18.8,5.4C412.3,563.3,406.9,561.8,402.3,558.9z M420.8,540.7c2.9-2.1,5-5,6.5-8.8
			s2.3-8.3,2.3-13.5v-0.1c0-5.3-0.8-9.8-2.3-13.6s-3.8-6.7-6.6-8.8c-2.9-2.1-6.2-3-10.1-3c-3.8,0-7.2,1-10,3.1
			c-2.9,2.1-5.1,5-6.8,8.8c-1.6,3.8-2.5,8.3-2.5,13.4v0.1c0,5.2,0.8,9.7,2.4,13.5s3.9,6.7,6.8,8.8s6.2,3.1,10.1,3.1
			C414.6,543.8,418,542.8,420.8,540.7z"/>
	</g>
	<g>
		<path class="st0" d="M603.5,525.1c-4.5,0.3-8,1.3-10.3,3.2s-3.5,4.3-3.5,7.3v0.2c0,3.2,1.2,5.6,3.6,7.5c2.4,1.8,5.7,2.7,9.7,2.7
			c3.5,0,6.6-0.7,9.4-2.1c2.8-1.4,4.9-3.2,6.5-5.6c1.6-2.4,2.4-5.1,2.4-8V524L603.5,525.1z"/>
		<path class="st0" d="M532.4,470c-3.9-3.5-9.3-5.3-16.3-5.3h-16.4V506h16.4c7,0,12.4-1.8,16.3-5.4c3.9-3.6,5.8-8.6,5.8-15.2v-0.2
			C538.2,478.6,536.3,473.6,532.4,470z"/>
		<path class="st0" d="M801.9,411.1H487.3c-12.4,0-22.4,10-22.4,22.4v150.6c0,12.4,10,22.4,22.4,22.4h314.6
			c12.4,0,22.4-10,22.4-22.4V433.5C824.3,421.1,814.3,411.1,801.9,411.1z M562.9,485.4c0,8-1.7,14.9-5.1,20.9
			c-3.4,6-8.2,10.6-14.3,13.9c-6.1,3.3-13.2,4.9-21.4,4.9h-22.4v36.6h-24.3V445.4h12.3h12.1h22.4c8.1,0,15.3,1.6,21.4,4.9
			c6.1,3.3,10.9,7.9,14.3,13.9c3.4,6,5.1,12.9,5.1,20.9v0.3H562.9z M644.8,561.7h-23.5v-12.8h-0.5c-1.7,2.9-3.8,5.4-6.3,7.6
			c-2.5,2.1-5.4,3.8-8.6,4.9s-6.7,1.7-10.5,1.7c-5.7,0-10.8-1.1-15.2-3.4c-4.4-2.2-7.8-5.3-10.2-9.3s-3.7-8.5-3.7-13.5v-0.2
			c0-7.8,2.9-14,8.8-18.5c5.9-4.5,14.2-7.1,24.9-7.8l21.4-1.3v-5.3c0-3.8-1.2-6.8-3.6-9c-2.4-2.2-5.9-3.3-10.5-3.3
			c-4.4,0-7.9,0.9-10.5,2.7c-2.6,1.8-4.1,4.1-4.8,6.9l-0.2,0.7h-21.6l0.1-1c0.5-5.3,2.3-10.1,5.4-14.2c3.1-4.1,7.4-7.4,12.9-9.7
			s12-3.5,19.6-3.5c7.5,0,13.9,1.2,19.4,3.6s9.7,5.7,12.8,10.1c3,4.3,4.6,9.4,4.6,15.2L644.8,561.7L644.8,561.7z M733.2,535.4
			c0,5.6-1.6,10.5-4.8,14.7s-7.7,7.5-13.3,9.8s-12.2,3.5-19.6,3.5c-8,0-14.7-1.1-20.3-3.5c-5.6-2.3-10-5.5-13.1-9.6s-5-8.9-5.6-14.3
			l-0.1-0.7h23l0.2,0.7c0.8,3.4,2.4,6,5.1,7.9s6.3,2.8,11,2.8c3,0,5.6-0.4,7.7-1.1c2.1-0.7,3.7-1.8,4.9-3.1c1.1-1.3,1.7-3,1.7-4.8
			v-0.1c0-2.3-0.8-4.1-2.5-5.6s-4.6-2.6-8.9-3.5l-14.7-3.2c-8.4-1.7-14.7-4.7-18.9-8.9s-6.4-9.5-6.4-16v-0.1
			c0-5.5,1.5-10.3,4.5-14.4c3-4,7.2-7.2,12.6-9.4c5.4-2.2,11.8-3.4,19.1-3.4c7.6,0,14.1,1.2,19.5,3.7s9.4,5.7,12.3,9.9
			c2.9,4.1,4.4,8.7,4.6,13.8v0.8h-21.7l-0.1-0.6c-0.4-3-1.8-5.6-4.3-7.7s-5.9-3.1-10.3-3.1c-2.7,0-5,0.4-7,1.1
			c-2,0.8-3.5,1.8-4.6,3.2c-1.1,1.3-1.6,3-1.6,4.8v0.1c0,2.2,0.9,4.1,2.6,5.6c1.7,1.5,4.8,2.7,9.1,3.6l14.7,3.2
			c9.1,1.9,15.6,4.7,19.5,8.5c4,3.8,5.9,8.8,5.9,15.2L733.2,535.4L733.2,535.4z M818.1,535.4c0,5.6-1.6,10.5-4.8,14.7
			s-7.7,7.5-13.3,9.8s-12.2,3.5-19.6,3.5c-8,0-14.7-1.1-20.3-3.5c-5.6-2.3-10-5.5-13.1-9.6s-5-8.9-5.6-14.3l-0.1-0.7h23l0.2,0.7
			c0.8,3.4,2.4,6,5.1,7.9s6.3,2.8,11,2.8c3,0,5.6-0.4,7.7-1.1c2.1-0.7,3.7-1.8,4.9-3.1c1.1-1.3,1.7-3,1.7-4.8v-0.1
			c0-2.3-0.8-4.1-2.5-5.6c-1.7-1.4-4.6-2.6-8.9-3.5l-14.7-3.2c-8.4-1.7-14.7-4.7-18.9-8.9s-6.4-9.5-6.4-16v-0.1
			c0-5.5,1.5-10.3,4.5-14.4c3-4,7.2-7.2,12.6-9.4c5.4-2.2,11.8-3.4,19.1-3.4c7.6,0,14.1,1.2,19.5,3.7c5.3,2.4,9.4,5.7,12.3,9.9
			c2.9,4.1,4.4,8.7,4.6,13.8v0.8h-21.7l-0.1-0.6c-0.4-3-1.8-5.6-4.3-7.7s-5.9-3.1-10.3-3.1c-2.7,0-5,0.4-7,1.1
			c-2,0.8-3.5,1.8-4.6,3.2c-1.1,1.3-1.6,3-1.6,4.8v0.1c0,2.2,0.9,4.1,2.6,5.6c1.7,1.5,4.8,2.7,9.1,3.6l14.7,3.2
			c9.1,1.9,15.6,4.7,19.5,8.5c4,3.8,5.9,8.8,5.9,15.2L818.1,535.4L818.1,535.4z"/>
	</g>
</g>
</svg>
