<?xml version="1.0" encoding="utf-8"?>
<!-- Generator: Adobe Illustrator 26.2.0, SVG Export Plug-In . SVG Version: 6.00 Build 0)  -->
<svg version="1.1" id="Calque_1" xmlns="http://www.w3.org/2000/svg" xmlns:xlink="http://www.w3.org/1999/xlink" x="0px" y="0px"
	 viewBox="0 0 2000 2000" style="enable-background:new 0 0 2000 2000;" xml:space="preserve">
<style type="text/css">
	.st0{fill:#FFFFFF;}
	.st1{fill:none;}
	.st2{fill:#FCFCFC;stroke:#FFFFFF;stroke-width:21.1942;stroke-miterlimit:10;}
</style>
<g>
	<g>
		<g>
			<path class="st0" d="M1225.2,1013.8c61.9,0,110-15.8,144.3-47.5s51.4-76.6,51.4-134.7v-1.4c0-59.1-17.1-104.2-51.4-135.4
				s-82.4-46.8-144.3-46.8h-145.4v1.7h-0.3v364.1h0.3L1225.2,1013.8L1225.2,1013.8z"/>
			<path class="st0" d="M1666.7,476.5l-447-0.1c72.4,0,194.2,14.8,248.5,44.1c54.3,29.3,96.6,70.4,126.8,123.2
				c30.2,52.9,45.4,114.8,45.4,185.7v1.4c0,70.5-15.1,132.2-45.4,185c-30.3,52.9-72.5,93.9-126.8,123.2
				c-54.3,29.3-117.6,43.9-190,43.9h-198.6v323.7h587.2c48.1,0,87.1-39,87.1-87.1v-856C1753.8,515.5,1714.8,476.5,1666.7,476.5z"/>
		</g>
		<g>
			<path class="st0" d="M685.8,1234.9c0,43.3-11.9,76.3-35.7,99s-58.3,34-103.6,34c-28.1,0-52-4.8-71.8-14.3s-35-22.9-45.7-40
				s-16.8-36.8-18.2-59l0,0c-0.4-1.9-2.1-3.2-4-3.2h-202c-2.2,0-4.1,1.8-4.1,4.1v0.9c1.9,53.7,17,100.6,45.4,140.8
				c28.3,40.2,68.1,71.3,119.3,93.3c51.2,22.1,112.3,32.4,183.2,33.1c107,1,195.6-24.5,260.4-75.5c62.6-49.2,92.5-120.8,92.5-211.4
				v-56.6H685.7L685.8,1234.9L685.8,1234.9z"/>
			<rect x="685.8" y="476.5" class="st0" width="215.8" height="535.5"/>
			<polygon class="st1" points="685.8,1180.1 901.6,1180.1 901.6,1012.1 685.8,1012.1 			"/>
		</g>
	</g>
	<path class="st2" d="M1735.7,893l52.8-122.9c5-11.7,7.8-25.5,8-39.7l2.7-187.7c0.4-30.8-15-56.2-34.2-56.1l-90.3,0.5l-2.7,433.8
		h30.6C1715.9,920.8,1728.2,910.4,1735.7,893z"/>
</g>
</svg>
