<?xml version="1.0" encoding="UTF-8"?>
<svg id="a" data-name="Calque 1" xmlns="http://www.w3.org/2000/svg" viewBox="0 0 1708.21 589.34">
  <path d="M1163.1,72.12l-119.7-51.4c-11.4-4.9-24.8-7.6-38.7-7.8l-182.6-2.6c-30-.4-54.7,14.6-54.6,33.3l.4,87.9,422.2,2.6v-29.8c0-12.9-10.1-24.9-27-32.2Z" style="fill: #fff; stroke: #fff; stroke-miterlimit: 10; stroke-width: 20.63px;"/>
  <path d="M1647.5,579.02H818.4c-27.9,0-50.4-22-50.4-49V82.62c0-27.1,22.6-49,50.4-49h829.1c27.9,0,50.4,22,50.4,49v447.3c0,27.1-22.5,49.1-50.4,49.1Z" style="fill: none; stroke: #fff; stroke-miterlimit: 10; stroke-width: 20.63px;"/>
  <g>
    <path d="M48.7,449.82c-15.2-7.8-26.9-18.9-35.3-33.1-8.4-14.2-12.9-30.9-13.4-49.9v-1.9H62l.2,1.3c.4,7.9,2.2,14.9,5.4,20.9,3.2,6.1,7.7,10.8,13.5,14.2,5.9,3.4,12.9,5.1,21.3,5.1,13.4,0,23.6-4,30.7-12.1,7.1-8,10.6-19.7,10.6-35.1V151.02h63.9v208.8c0,32.2-9.1,57.2-27.4,75-18.3,17.8-44,26.8-77.1,26.8-21.1,0-39.2-3.9-54.4-11.8Z" style="fill: #fff;"/>
    <path d="M299.8,446.92c-16.8-9.4-29.8-22.9-39-40.6-9.2-17.7-13.9-38.8-13.9-63.4v-.4c0-24.4,4.7-45.4,14.1-62.9,9.4-17.6,22.5-31.1,39.2-40.5,16.8-9.4,36.5-14.2,59-14.2s42.5,4.7,59.3,14.1c16.9,9.4,29.9,22.8,39.2,40.4,9.3,17.6,14,38.6,14,63.2v.4c0,24.7-4.6,45.8-13.9,63.5-9.2,17.6-22.3,31.1-39,40.5-16.8,9.4-36.6,14.1-59.5,14.1-22.9-.2-42.7-4.9-59.5-14.2Zm85.9-42.6c7.3-5.4,13-13.3,17-23.7,4-10.4,6-23,6-37.8v-.4c0-14.5-2-27-6.1-37.3-4.1-10.4-9.8-18.3-17.2-23.7-7.4-5.4-16.1-8.1-26.1-8.1s-18.5,2.7-25.9,8.3c-7.4,5.6-13.2,13.4-17.2,23.7-4.1,10.3-6.1,22.7-6.1,37.2v.4c0,14.8,2,27.4,6,37.8,4,10.4,9.8,18.3,17.2,23.7,7.5,5.4,16.3,8.1,26.4,8.1,10,0,18.6-2.7,26-8.2Z" style="fill: #fff;"/>
    <path d="M595.3,449.42c-12-7.7-21.1-18.3-27.3-31.8h-1.2v38.7h-61.8V151.02h61.8v117.8h1.3c6.2-13.7,15.4-24.4,27.6-32.3,12.2-7.8,26.3-11.7,42.4-11.7,19,0,35.4,4.7,49.2,14.1,13.8,9.4,24.4,22.8,31.8,40.4,7.5,17.6,11.2,38.7,11.2,63.4v.2c0,24.5-3.7,45.6-11.2,63.3-7.5,17.6-18.1,31.2-31.9,40.6-13.8,9.5-30.3,14.2-49.3,14.2-16.4-.1-30.6-3.9-42.6-11.6Zm48.7-47.8c7.5-5.4,13.2-13.2,17.2-23.2s6-21.9,6-35.5v-.2c0-13.8-2-25.7-6.1-35.6-4.1-9.9-9.9-17.6-17.3-23-7.5-5.4-16.3-8-26.4-8s-18.8,2.7-26.3,8.1c-7.5,5.4-13.5,13.2-17.8,23.2s-6.5,21.8-6.5,35.3v.2c0,13.7,2.1,25.5,6.3,35.5s10.2,17.7,17.8,23.2c7.6,5.4,16.4,8.1,26.4,8.1s19.2-2.7,26.7-8.1Z" style="fill: #fff;"/>
  </g>
  <g>
    <path d="M1123.7,360.52c-11.8,.7-20.9,3.5-27.1,8.3-6.2,4.8-9.3,11.2-9.3,19.3v.4c0,8.3,3.2,14.8,9.5,19.6,6.3,4.7,14.9,7.1,25.6,7.1,9.2,0,17.4-1.8,24.6-5.4,7.3-3.6,13-8.5,17.1-14.8,4.2-6.3,6.2-13.3,6.2-21.1v-16.5l-46.6,3.1Z" style="fill: #fff;"/>
    <path d="M937.1,215.92c-10.2-9.2-24.4-13.9-42.7-13.9h-43.2v108.3h43.2c18.3,0,32.6-4.7,42.7-14.1,10.2-9.4,15.2-22.7,15.2-39.9v-.4c0-17.4-5-30.7-15.2-40Z" style="fill: #fff;"/>
    <path d="M1645,61.22H818.7c-32.5,0-58.8,26.3-58.8,58.8v395.7c0,32.5,26.3,58.8,58.8,58.8h826.3c32.5,0,58.8-26.3,58.8-58.8V120.02c0-32.5-26.3-58.8-58.8-58.8Zm-627.7,195c0,20.9-4.5,39.1-13.4,54.8-9,15.7-21.5,27.8-37.6,36.5-16.1,8.7-34.8,13-56.3,13h-58.8v96.1h-63.9V151.32h122.7c21.4,0,40.2,4.3,56.3,13,16.1,8.7,28.6,20.8,37.6,36.5s13.4,34,13.4,55v.4Zm214.9,200.4h-61.8v-33.6h-1.3c-4.4,7.6-9.9,14.2-16.5,19.9-6.6,5.6-14.2,9.9-22.7,12.9s-17.7,4.4-27.6,4.4c-15.1,0-28.4-2.9-39.9-8.8-11.5-5.9-20.5-14-26.9-24.3-6.4-10.4-9.6-22.2-9.6-35.4v-.4c0-20.6,7.7-36.8,23.2-48.6,15.4-11.8,37.2-18.6,65.3-20.4l56.1-3.5v-13.9c0-10-3.2-17.9-9.5-23.7-6.3-5.8-15.6-8.7-27.7-8.7s-20.7,2.4-27.5,7.1c-6.8,4.7-10.9,10.8-12.5,18.1l-.4,1.9h-56.7l.2-2.5c1.3-14,6-26.4,14.1-37.2,8.1-10.9,19.4-19.4,33.9-25.5s31.6-9.2,51.5-9.2,36.6,3.1,51,9.4c14.4,6.3,25.6,15.1,33.5,26.6,8,11.4,12,24.8,12,40v155.4h-.2Zm232.3-69c0,14.8-4.2,27.7-12.7,38.7s-20.1,19.6-35,25.7c-14.9,6.1-32.1,9.2-51.5,9.2-20.9,0-38.7-3-53.4-9.1-14.7-6.1-26.2-14.5-34.4-25.3-8.2-10.8-13.1-23.3-14.8-37.6l-.2-1.9h60.3l.4,1.9c2,8.9,6.4,15.8,13.3,20.7,6.9,4.9,16.5,7.4,28.8,7.4,7.9,0,14.6-1,20.1-2.9,5.5-1.9,9.8-4.6,12.8-8.1s4.5-7.8,4.5-12.7v-.2c0-6.1-2.2-10.9-6.6-14.6-4.4-3.7-12.1-6.7-23.3-9.1l-38.5-8.3c-22-4.5-38.6-12.3-49.7-23.3-11.1-11-16.7-25-16.7-41.9v-.2c0-14.5,3.9-27.1,11.7-37.7,7.8-10.6,18.9-18.8,33.2-24.6,14.3-5.9,31.1-8.8,50.2-8.8s37.1,3.2,51.1,9.6c14,6.4,24.8,15.1,32.4,25.9,7.5,10.9,11.5,22.9,12,36.2v2.1h-56.9l-.2-1.7c-1-8-4.8-14.8-11.3-20.2-6.6-5.4-15.5-8.1-27-8.1-7.1,0-13.2,1-18.4,3-5.2,2-9.2,4.7-12.1,8.3-2.8,3.5-4.2,7.8-4.2,12.7v.2c0,5.8,2.3,10.7,6.8,14.6,4.5,4,12.5,7.1,23.9,9.5l38.5,8.3c23.8,4.9,40.9,12.3,51.3,22.2,10.4,9.9,15.6,23.1,15.6,39.8v.3h0Zm223,0c0,14.8-4.2,27.7-12.7,38.7s-20.1,19.6-35,25.7c-14.9,6.1-32.1,9.2-51.5,9.2-20.9,0-38.7-3-53.4-9.1-14.7-6.1-26.2-14.5-34.4-25.3-8.2-10.8-13.1-23.3-14.8-37.6l-.2-1.9h60.3l.4,1.9c2,8.9,6.4,15.8,13.3,20.7,6.9,4.9,16.5,7.4,28.8,7.4,7.9,0,14.6-1,20.1-2.9,5.5-1.9,9.8-4.6,12.8-8.1s4.5-7.8,4.5-12.7v-.2c0-6.1-2.2-10.9-6.6-14.6-4.4-3.7-12.1-6.7-23.3-9.1l-38.5-8.3c-22-4.5-38.6-12.3-49.7-23.3-11.1-11-16.7-25-16.7-41.9v-.2c0-14.5,3.9-27.1,11.7-37.7,7.8-10.6,18.9-18.8,33.2-24.6,14.3-5.9,31.1-8.8,50.2-8.8s37.1,3.2,51.1,9.6c14,6.4,24.8,15.1,32.4,25.9,7.5,10.9,11.5,22.9,12,36.2v2.1h-56.9l-.2-1.7c-1-8-4.8-14.8-11.3-20.2-6.6-5.4-15.5-8.1-27-8.1-7.1,0-13.2,1-18.4,3-5.2,2-9.2,4.7-12.1,8.3-2.8,3.5-4.2,7.8-4.2,12.7v.2c0,5.8,2.3,10.7,6.8,14.6,4.5,4,12.5,7.1,23.9,9.5l38.5,8.3c23.8,4.9,40.9,12.3,51.3,22.2,10.4,9.9,15.6,23.1,15.6,39.8v.3h0Z" style="fill: #fff;"/>
  </g>
</svg>